<svg height="409pt" viewBox="-13 0 409 409.1247" width="409pt" xmlns="http://www.w3.org/2000/svg"><path d="m296.265625 409.125c-3.769531 0-6.828125-3.058594-6.828125-6.828125v-71.945313c0-1.765624.6875-3.46875 1.914062-4.738281 1.445313-1.5 143.25-151.019531 40.054688-260.589843-31.820312-33.777344-78.753906-52.46875-128.730469-51.304688-69.71875 1.640625-152.824219 30.441406-152.824219 158.351562 0 .953126-.199218 1.894532-.589843 2.765626l-35.011719 78.925781c-.660156 1.492187-.726562 2.664062-.195312 3.480469.65625 1.007812 2.59375 2.1875 5.910156 2.1875h30.695312c8.363282 0 13.496094 9.679687 13.496094 16.617187v52.335937c0 13.929688 11.398438 26.617188 23.921875 26.617188h85.304687c3.769532 0 6.828126 3.058594 6.828126 6.828125v40.46875c0 3.769531-3.058594 6.828125-6.828126 6.828125-3.769531 0-6.828124-3.058594-6.828124-6.828125v-33.640625h-78.476563c-20.015625 0-37.574219-18.816406-37.574219-40.273438v-52.335937c0-.730469-.554687-2.15625-1.097656-2.964844h-29.441406c-7.445313 0-13.9375-3.140625-17.355469-8.398437-3.074219-4.726563-3.378906-10.726563-.835937-16.460938l34.429687-77.613281c.335937-62.945313 22.695313-167.167969 166.15625-170.5390625 53.871094-1.4179685 104.519531 18.9999995 138.988281 55.5898435 105.15625 111.652344-20.914062 258.261719-38.253906 277.363282v69.273437c-.003906 3.769531-3.058594 6.828125-6.828125 6.828125zm0 0"/><path d="m303.621094 171.246094c0 54.0625-43.824219 97.886718-97.886719 97.886718-54.058594 0-97.882813-43.824218-97.882813-97.886718s43.824219-97.886719 97.882813-97.886719c54.0625 0 97.886719 43.824219 97.886719 97.886719zm0 0" fill="#feda38"/><path d="m205.734375 275.957031c-57.738281 0-104.710937-46.972656-104.710937-104.710937 0-57.738282 46.972656-104.710938 104.710937-104.710938s104.710937 46.972656 104.710937 104.710938c.003907 57.738281-46.972656 104.710937-104.710937 104.710937zm0-195.769531c-50.210937 0-91.058594 40.847656-91.058594 91.058594 0 50.210937 40.847657 91.058594 91.058594 91.058594s91.058594-40.851563 91.058594-91.058594c0-50.207032-40.847657-91.058594-91.058594-91.058594zm0 0"/><path d="m220.53125 159.410156c0-11.441406 9.277344-20.714844 20.714844-20.714844 11.441406 0 20.714844 9.273438 20.714844 20.714844" fill="#feda38"/><path d="m261.960938 166.234375c-3.769532 0-6.824219-3.054687-6.824219-6.824219 0-7.65625-6.230469-13.886718-13.886719-13.886718-7.660156 0-13.890625 6.226562-13.890625 13.886718 0 3.769532-3.058594 6.824219-6.828125 6.824219s-6.828125-3.054687-6.828125-6.824219c0-15.1875 12.359375-27.542968 27.546875-27.542968s27.539062 12.355468 27.539062 27.542968c0 3.769532-3.058593 6.824219-6.828124 6.824219zm0 0"/><path d="m226.453125 191.960938c0 11.4375-9.277344 20.710937-20.714844 20.710937-11.441406 0-20.714843-9.273437-20.714843-20.710937" fill="#feda38"/><path d="m205.734375 219.503906c-15.1875 0-27.539063-12.355468-27.539063-27.542968 0-3.769532 3.054688-6.824219 6.824219-6.824219s6.828125 3.054687 6.828125 6.824219c0 7.65625 6.230469 13.886718 13.886719 13.886718 7.660156 0 13.890625-6.226562 13.890625-13.886718 0-3.769532 3.054688-6.824219 6.828125-6.824219 3.769531 0 6.824219 3.054687 6.824219 6.824219 0 15.1875-12.355469 27.542968-27.542969 27.542968zm0 0"/><path d="m149.511719 159.410156c0-11.441406 9.273437-20.714844 20.714843-20.714844 11.4375 0 20.710938 9.273438 20.710938 20.714844" fill="#feda38"/><path d="m190.941406 166.234375c-3.769531 0-6.828125-3.054687-6.828125-6.824219 0-7.65625-6.226562-13.886718-13.890625-13.886718-7.65625 0-13.886718 6.226562-13.886718 13.886718 0 3.769532-3.054688 6.824219-6.824219 6.824219-3.773438 0-6.828125-3.054687-6.828125-6.824219 0-15.1875 12.351562-27.542968 27.539062-27.542968s27.542969 12.355468 27.542969 27.542968c0 3.769532-3.054687 6.824219-6.824219 6.824219zm0 0"/></svg>